<svg xmlns="http://www.w3.org/2000/svg" width="580" height="400"><path fill="#fff" d="M-1-1h582v402H-1z"/><path fill="none" stroke="#000" stroke-linecap="undefined" stroke-linejoin="undefined" stroke-opacity="null" stroke-width="1.5" d="m297.75-.5 4.5 416M-1.75 191.5l596.5 2.5M284.25 183.5l.5 19.5M271.25 180v21.5M247.75 182.5l.5 21.5M225.75 184.5l-1 20M201.75 181.5l-.5 25M176.25 180l-2.5 21M147.75 179.5l-2.5 25.5M113.75 182.5l-2.5 18M83.75 181v22.5M61.75 182l.5 23M41.75 181.5l-.5 26M20.25 179.5l1 26M316.75 186l2 19.5M330.25 186l1.5 17.5M344.75 182.5l2.5 23M361.75 184.5l1 20M378.25 181.5l1.5 26M398.25 183l1 24M415.75 181.5l1.5 25.5M437.75 183.5v24M459.25 184.5v24M481.75 181l-.5 37.5M503.75 184.5l.5 33.5M519.25 185.5l-.5 26M535.25 183.5V207M547.25 185.5l-.5 18M560.25 184.5l2 19.5M292.25 213.5h23.5M289.25 226l30.5 1M290.25 247l32 .5M290.75 261h36.5M290.75 277.5h34M289.25 294.5l35.5-.5M291.25 309.5l34 .5M288.25 328.5l40.5.5M288.75 345.5l46.5.5M287.25 364.5l52 1M286.25 380.5l57 1M292.25 165.5l17 .5M291.25 149.5h25.5M289.25 129l31.5-.5M288.25 109.5h29.5M287.25 93.5h33.5M291.25 74l24.5-.5M285.25 56.5l29.5 1.5M287.25 37l27-1M289.75 13l20 .5M289.25.5l24.5 1"/><path fill="none" stroke="#000" stroke-opacity="null" stroke-width="1.5" d="M271.25 193v-.5c.5 0 .5-.5 1-.5s1 0 1 .5-.646.146-1 .5-.5.5-1 .5h-.5V191c0-.5.5-.5.5-1 0 0 0-.5.5-.5s.646.146 1 .5 0 1 0 1.5v2c0 .5-.5.5-1 .5h-1c-.5 0-.646-.146-1-.5s0-1 0-1.5.5-.5.5-.5h1c.5 0 1.146-.354 1.5 0 .354.354.5.5.5 1s-.23.847-.5 1.5c-.191.462-.347.73-1 1-.462.191-.5.5-.5.5-.5 0-1.038.191-1.5 0-.653-.27-.73-.847-1-1.5-.191-.462-.5-.5-.5-1v-1.5s-.354-.646 0-1l1-1c.354-.354 1 0 1.5 0s.538-.191 1 0c.653.27 1.146.146 1.5.5.354.354.354 1.146 0 1.5-.354.354-1.146.146-1.5.5-.707.707-.309 1.038-.5 1.5-.27.653-.646.646-1 1s-.5.5-1 .5c0 0-.5 0-.5-.5V192c0-.5-.191-.538 0-1 .27-.653.146-.646.5-1s.5-.5 1-.5h1c.5 0 .538.309 1 .5.653.27 1 .5 1 1v4.5h-.5c-.5 0-.646.146-1 .5s-.5 0-1 0-1-.5-1-.5c0-1-.5-2-.5-2v-3c0-.5 0-1 .5-1h2c.5 0 .309.038.5.5.27.653 1 1.5 1 2v3.5c0 .5-.5.5-1 .5h-1.5c-1 0-1.146-.146-1.5-.5-.354-.354-.646-.146-1-.5s-.5-1.5-.5-2v-1.5c0-.5.5-.5 1.5 0 0 0-.354.146 0 .5s.146.646.5 1l.5.5c0 .5-.146.646-.5 1l-.5.5c-.5 0-.5-.5-1-1.5V192c0-.5-.191-1.038 0-1.5.27-.653.646-.646 1-1s1.146-.354 1.5 0c.354.354.5.5.5 2 0 0-.154 1.093.5 2 .413.574.5 1.5.5 2s.354 1.146 0 1.5c-.354.354-.646.146-1 .5s-1 0-1.5 0-.385-.513-.5-1c-.257-1.088-.846-2.093-1.5-3-.413-.574-.5-1.5-.5-2h1c.5 0 1.093-.154 2 .5.574.413 1 1 1 1.5v.5h-1M298.25 110h-1v-2.5s.5-.5 1-.5.5-.5 1-.5c0 0 .959-.307 1.5 1 .383.924.5 1 .5 2v2c0 .5 0 1-.5 1h-1.5c-.5 0-.538-.309-1-.5-.653-.27-.646-.646-1-1-.707-.707 0-1.5 0-2s.146-.646.5-1 .5-.5 1-.5h1c.5 0 1.146-.354 1.5 0 .707.707 0 1.5 0 2v3.5c0 .5 0 .5-.5.5h-1.5V110c0-.5.5-.5.5-.5.5 0 .5 0 .5.5v1.5l-.5.5c-.354.354-.146.646-.5 1s-1.038.191-1.5 0c-.653-.27-.5-1-.5-1v-.5c0-.5.5-.5 1-.5s.5-.5 1-.5h2c0 .5.5.5.5 1v1c0 .5-.5 1-.5 1s0 .5-.5.5h-1.5v-.5c-.5 0-.73-.347-1-1-.191-.462 0-1 0-1 0-.5.146-.646.5-1l.5-.5c.5 0 1.23-.153 1.5.5.191.462.5 1 .5 1v2c0 .5-1.23.847-1.5 1.5-.191.462-.5.5-1 .5s-1.243-.412-1.5-1.5c-.115-.487 0-.5 0-1s.146-1.146.5-1.5c.354-.354.5-.5 1-.5s.5 0 .5.5c0 0 .73-.153 1 .5.191.462.5.5.5 1.5v1.5c0 .5.354 1.146 0 1.5-.354.354-.646-.146-1-.5s-.646-.146-1-.5.207-1.293-.5-2c-.354-.354-.854-.646-.5-1s1 0 1.5 0h1c.5 0 1 0 1 .5s.191.538 0 1c-.27.653-1.146.146-1.5.5l-.5.5c-1 0-.549-.912-1.5-1.5-.425-.263-.309-1.038-.5-1.5-.27-.653-1-1.5-1-2v-2c0-.5.5-.5.5-.5.5 0 .5-.5.5-.5.5 0 1.146-.354 1.5 0 .354.354.27 1.027.5 2 .257 1.088 1.5 2.5 1.5 3.5s.707 2.293 0 3c-.354.354-1 0-1.5-1s-1.73-1.347-2-2c-.191-.462-.743-.912-1-2-.115-.487-.354-1.146 0-1.5.354-.354.5-.5 1-.5h1.5c.5 0 .346.093 1 1 .827 1.147.926 2.114 1.5 3.5.27.653.5 2 .5 2.5s-.146 1.354-.5 1c-.707-.707-.5-1-1.5-1.5l-.5-1v-.5M328.75 194c0-.5-.5-.5-1-.5 0 0-.5 0-.5-.5s.038-.809.5-1c.653-.27.5-2 1.5-2.5 0 0 .73.153 1-.5.191-.462.5-.5 1-.5 0 0 .5 0 .5.5v3.5c0 .5-.5.5-.5 1 0 0-.5 0-.5.5s-.5.5-1 .5-.73.153-1-.5c-.191-.462 0-.5 0-1.5v-1c0-.5.5-1.5.5-1.5.5-.5 1-.5 1.5-.5s.538-.191 1 0c.653.27 1.5 1.5 1.5 1.5 0 .5.5.5.5 1v1.5s-.23.347-.5 1c-.191.462 0 .5-.5.5h-1.5c-.5-1-1.412-1.049-2-2-.263-.425 0-1 0-1.5s1.087-1.426 1.5-2c.654-.907.5-1.5.5-2 0 0 .538-.191 1 0 .653.27 1 .5 1 1v4.5c0 .5-.21 1.71-1 2.5l-1 1c0 .5-.5.5-1 .5s-.809-.038-1-.5c-.27-.653-1.075-.737-1.5-1-.951-.588-.5-1.5-.5-2v-2s.646.354 1 0 .646-.146 1-.5.538-.691 1-.5c.653.27.885.513 1 1 .257 1.088.646 1.646 1 2 .354.354.191 1.038 0 1.5-.27.653-1 .5-1 .5h-1.5c-.5 0-.5-.5-.5-1.5v-2.5s.5-1 1-1h1c.5 0 .5.5 1 .5s1 .5 1 .5v2c0 .5 0 .5-.5 1s-.5 1-1 1h-1.5c-.5 0-1-1-1-1.5v-2.5s-.263-1.075 0-1.5c.588-.951 1-.5 2-.5h1c.5 0 .77 1.027 1 2 .257 1.088.646 1.646 1 2 .707.707 0 1.5 0 2 0 0-1 .5-1 1h-1.5c-.5 0-.73.153-1-.5-.191-.462-.926-.614-1.5-2-.27-.653-.5-2-.5-2.5V190c0-.5.5-.5.5-.5h2.5v2c0 1.5.115 2.013 0 2.5-.257 1.088-.646 1.146-1 1.5-.354.354-1 1-1.5 1 0 0-.426-.087-1-.5-.907-.654-.669-.655-1.5-2-.372-.602-1.5-1.5-1.5-2.5v-2s0-.5 1-.5c.5 0 1.076-.383 2 0 .653.27 1.173.353 2 1.5.654.907.426 1.114 1 2.5.27.653.5 1 .5 2v1.5c0 .5-.5 1-.5 1h-2c-.5 0-2.225-.725-3.5-2s-2.595-2.44-3.5-4c-1.122-1.934-2.088-3.049-1.5-4 .263-.425.767-.345 1.5.5 1.036 1.194 1.072 2.467 1.5 3.5.605 1.46.5 2.5.5 3.5v2"/><path fill="none" stroke="#000" stroke-opacity="null" stroke-width="1.5" d="M298.75 111.5c-.5 0-.146.646-.5 1s-.5.5-.5 1-.5 1-.5 1.5v.5c0 .5.354 1.146 0 1.5l-.5.5c-.5.5-.5 1-.5 1.5s.191.538 0 1a4.616 4.616 0 0 1-1 1.5c-.354.354 0 1.5-.5 2s-.117 1.076-.5 2c-.27.653-1 1-1 2 0 0-.243.412-.5 1.5-.115.487-.385 1.013-.5 1.5-.257 1.088-1 1-1 1.5 0 1-.412 1.049-1 2-.526.85-.743 1.412-1 2.5-.23.973-.572 1.967-1 3-.605 1.46-1 2-1 3s-.743 1.412-1 2.5c-.115.487-.743.912-1 2-.115.487-.743 1.412-1 2.5-.115.487-.73 1.347-1 2-.574 1.386-.23 1.847-.5 2.5-.383.924-.594 1.208-1 1.5-1.283.925-.5 2-.5 2 0 .5-.309 1.038-.5 1.5-.27.653-.587.926-1 1.5-.654.907-.117 2.076-.5 3-.27.653-1.087 1.426-1.5 2-.654.907-.309 1.538-.5 2-.27.653-.346 1.093-1 2-.413.574-1 1.5-1 2 0 1-.5 2-.5 2-.5 1-.575 1.737-1 2-.951.588-.385 2.013-.5 2.5-.257 1.088-.27 1.527-.5 2.5-.257 1.088-.346 2.093-1 3-.413.574-.5 1-.5 2 0 0-.5 0-.5.5s.354 1.146 0 1.5l-.5.5c-.354.354-.5.5-.5 1s-.243.412-.5 1.5c-.23.973 0 1 0 1 0 .5.354 1.646 0 2-.354.354-.5.5-.5 1v1h-.5M327.75 192.5c0-.5-.146-.646-.5-1-.707-.707 0-1.5 0-2s.707-1.293 0-2c-.354-.354-.309-1.038-.5-1.5-.27-.653-.5-.5-.5-1s-.309-.538-.5-1c-.27-.653-.5-.5-.5-1v-1.5c0-.5-.73-1.347-1-2-.383-.924 0-1.5 0-2 0-1-.27-2.027-.5-3-.257-1.088-.385-2.013-.5-2.5-.257-1.088-.617-2.076-1-3-.27-.653-1-1.5-1-2.5V164c0-.5-.743-1.412-1-2.5-.115-.487-.73-1.347-1-2-.191-.462.115-2.013 0-2.5-.257-1.088-.77-2.027-1-3-.257-1.088-1-2-1-2.5 0-1-.73-1.847-1-2.5-.383-.924-.73-1.347-1-2-.191-.462.115-1.013 0-1.5-.257-1.088-.809-1.538-1-2-.27-.653-1-1.5-1-2 0-1-.293-1.293-1-2-.707-.707.191-2.038 0-2.5-.541-1.307-.885-1.513-1-2-.257-1.088-.587-1.426-1-2-.654-.907-1-1-1-1.5v-.5c0-.5-.5-1-.5-1.5 0 0-.309-.538-.5-1-.27-.653-1-.5-1-1 0 0 .354-.646 0-1s-.5-.5-.5-1c0 0-.309-.038-.5-.5-.27-.653-.646-.646-1-1s0-1 0-1.5c0 0 0-.5-.5-1 0 0-.309-.038-.5-.5-.27-.653-1-.5-1-1v-.5c-.5-1-.538-1.309-1-1.5-.653-.27-1-.5-1-1s-.5-.5-.5-1-.5-.5-.5-.5c-.5 0-.646-.146-1-.5s.354-1.146 0-1.5c-.354-.354-.5 0-.5-.5v-.5M298.75 264.5c.5 0 .5 0 .5-.5s-.354-1.146 0-1.5c.354-.354.646.146 1 .5l.5.5c.5.5.5 1 .5 1.5v1c0 .5 0 1-.5 1s-.809-.038-1-.5c-.27-.653-.5-1-.5-1-.5-.5-1-1.5-1-2v-1c0-.5.146-.646.5-1l.5-.5c.354-.354 1.038-.191 1.5 0 .653.27.346.593 1 1.5.413.574 1 .5 1 1v1c0 .5-.5 1-1 1h-.5c-.5 0-.793.707-1.5 0-.354-.354 0-1.5-.5-2v-2c0-.5.049-1.412 1-2 .425-.263.5 0 1 0v4.5c0 1 .154 1.593-.5 2.5-.413.574-1 1-1 1-.5 0-.5 0-.5-1.5 0-.5-.5-2-.5-3v-2.5c0-.5 0-1 .5-1h2v1c0 .5.146.646.5 1s.5 1 .5 1.5-.243.912-.5 2c-.115.487-.5.5-.5 1s-.5.5-1 .5h-1c-.5-.5-1.087-.926-1.5-1.5-.654-.907-.5-1.5-.5-1.5V262s0-.5.5-.5h2c.5 0 1 0 1 .5s.23.847.5 1.5c.191.462 0 1 0 2v1.5c0 .5.088.743-1 1-.487.115-1 .5-1 .5-.5 0-1.038.191-1.5 0-.653-.27-.146-.646-.5-1s-.5-1-.5-1.5v-2c0-.5.146-.146.5-.5s.5-.5 1-.5h1c0 .5.146.146.5.5s0 1.5 0 2c0 0 .191 1.038 0 1.5-.27.653-.5.5-1 1s-1 1-1.5 1c0 0-.646.354-1 0s-.5-1-.5-1.5v-2s-.191-.538 0-1c.27-.653 1-.5 1.5-1h2v3c0 .5.354.646 0 1s-1 0-1.5.5-.5 1-1 1-1-.5-1-1v-1.5c0-1-.383-1.076 0-2 .27-.653 1-1 1.5-1h4v4c-.5.5-1.309 1.038-1.5 1.5-.27.653-1 .5-1 .5h-2c-.5 0-1-.5-1-1s.5-.5 1-.5h1c.5 0 .5.5 1 .5v1"/><path fill="none" stroke="#000" stroke-opacity="null" stroke-width="1.5" d="M268.25 194c0 .5-.207.793.5 1.5.354.354.117.576.5 1.5.27.653 1.303 1.27 2 2.5 1.016 1.794 1.614 4.139 2.5 6 1.074 2.257 2.724 3.903 3.5 6 .715 1.934 1.303 2.77 2 4 1.016 1.794 1.5 3 2 4l1.5 3c.5 1 .572 1.967 1 3 .605 1.46 1.395 2.54 2 4 .856 2.066 1.5 3 2 4s1.42 2.006 1.5 2.5c.253 1.56 1 2 1.5 3s1.21 2.543 1.5 3.5c.522 1.725 1.305 3.08 2 4.5.792 1.62.809 2.538 1 3 .541 1.307 1 2 1.5 3s1.072 2.467 1.5 3.5c.605 1.46 1 2.5 1 3v2s.243.412.5 1.5c.115.487 0 .5 0 1s.5 1 .5 1.5"/><path fill="none" stroke="#000" stroke-opacity="null" stroke-width="1.5" d="m329.232 189.863-.992.122c-.497.06-.625.214-.936.585-.622.74.286 1.387.227 1.852-.131 1.04-.825 2.406-1.091 3.425-.49 1.878-.09 3.762-.311 5.68-.273 2.372-.83 4.34-.807 5.74.039 2.381-1.06 4.344-1.247 6.265-.276 2.834-1.29 4.4-1.303 5.802-.018 1.926-1.425 3.553-1.97 4.472-.691 1.164-1.149 2.962-2.028 4.01a16.48 16.48 0 0 0-2.906 5.058c-.81 2.222-2.417 3.675-2.962 4.595-.69 1.163-1.413 1.514-1.758 2.096-.546.92-.685 1.06-.822 1.51-.195.639-.644 1.706-1.262 2.036-.437.234-.822 1.511-1.262 2.035-.879 1.049-1.261 2.036-1.7 2.56-.88 1.048-1.571 1.546-1.645 3.022-.023.467-1.187.533-1.318 1.572-.06.465-.152.984-.27 1.914-.13 1.04-1.03 2.032-1.148 2.962-.13 1.039-.457 1.798-1.148 2.961-.545.92-.52 1.862-.651 2.9-.06.466.113.927-.27 1.914-.382.988-.878 1.049-.765 1.975 0 0-.496.06-.44.524l.114.926.057.463M93.25 28.125c0-.5 0-1-.5-1 0 0-.847-.73-1.5-1-.462-.191-1 0-1.5 0h-1.5c-1 0-1.54.155-3 .5-1.088.257-2.093.846-3 1.5-1.147.827-1.906 1.603-3 2.5-1.394 1.143-2.196 2.885-4 4-1.345.831-2.5 2.5-4 4s-2.455 2.154-3.5 4c-1.016 1.794-1.84 3.564-2.5 5-1.218 2.649-2 4.5-2 7 0 1.5-.748 2.454-1 4.5-.122.993-.46 2.054 0 4 .257 1.088.285 2.066 1 4 .776 2.097 2 3.5 3.5 5 1 1 2.106 2.357 3.5 3.5 1.64 1.345 2.786 1.84 5 3 1.4.734 2 .5 3.5.5h2c.5 0 2.013.16 3 0 1.56-.253 2.593-1.346 3.5-2 1.147-.827 2.162-1.76 3-2.5 1.351-1.193 1.346-2.593 2-3.5.827-1.147 1.346-2.093 2-3 .827-1.147 1-1.5 1-2 0-1 .5-2 .5-3v-2c0-.5-.5-.5-.5-1h-1c-.5 0-1.412-.743-2.5-1-.487-.115-1.5 0-2 0-1 0-2-1-3-1h-8M151.75 33.125c-.5 0-.575-.263-1 0-.951.588-.646 1.646-1 2-1.06 1.06-.26 2.52-.5 4-.253 1.56-.335 3.007-.5 5-.25 3.031-.952 5.008-1.5 8-.46 2.508-.74 4.94-1.5 8.5-.737 3.458-.5 6-1 8.5s-1.1 5.532-1.5 8c-.253 1.56-.117 2.576-.5 3.5-.27.653-.5 0-.5-.5v-25c0-5-.04-8.673 1-11 1.02-2.282 3.04-3.924 5-5 2.556-1.403 4.115-1.666 6-2.5 1.649-.73 2.94-1.247 4.5-1.5.494-.08 1.5 0 2.5 0 0 0 1.076-.383 2 0 1.307.541 1.895 2.54 2.5 4 .428 1.033.747 2.94 1 4.5.32 1.974-.224 3.403-1 5.5-.715 1.933-1.932 3.573-3 4.5-1.889 1.638-3.385 2.774-5.5 3.5-2.412.827-4.52.924-6.5 1.5-1.518.442-3.5.5-5 .5h-4.5c.5.5 1.593 1.846 2.5 2.5 1.72 1.24 3.796 3.053 7 5.5 2.248 1.717 4.59 3.872 7.5 6 2.584 1.89 5 4 7.5 6s4.684 3.782 6.5 5.5c1.31 1.239 3.362 2.611 5 4.5 1.39 1.603 2.28 2.26 4 3.5.907.654 1.646 1.146 2 1.5.354.354.5-.5.5-1M221.25 98.625c0-.5.724-.903 1.5-3 .715-1.934 1.792-4.584 3.5-8.5 1.788-4.1 4.174-7.917 6.5-13 2.705-5.91 5.291-11.35 8-17 2.81-5.861 4.812-11.1 7-15 2.307-4.114 3.943-6.639 5.5-9 1.482-2.248 1.549-3.912 2.5-4.5.425-.263.73-.653 1 0 .191.462.424 2.52 1 4.5.884 3.036 1.878 5.84 3 9 1.542 4.344 2.123 9.075 3.5 15 1.181 5.085 2.263 10.048 3.5 15.5 1.261 5.56 2.529 10.578 3.5 15 .678 3.089 1.743 5.412 2 6.5.23.973 0 1.5 0 2v7s.5 1 1 1.5v.5-.5l-.5-.5"/><path fill="none" stroke="#000" stroke-opacity="null" stroke-width="1.5" d="M227.25 73.125h1.5c.5 0 1.5-.5 2.5-.5h5.5c2.5 0 5.5-.5 8.5-.5h22.5c2 0 3.347-.23 4-.5.924-.383 1.5 0 1.5 0h4.5v1.5M340.25 119.625c0-.5.23-.527 0-1.5-.257-1.088-1.144-2.934-2-5a57.061 57.061 0 0 1-3-9.5c-.669-2.967-1.061-5.99-1.5-9-.581-3.989-.75-7.477-1-11.5-.249-3.992-.407-8.51-1-14-.433-4.008-.5-9-.5-14 0-3.5.426-5.743 1.5-8 .886-1.861 1.775-3.478 3.5-4 1.914-.58 3.5-.5 5.5-.5 3 0 5.517-.345 9 0 2.537.251 5.056.274 7.5 1 2.581.767 4.614 2.365 7 4.5 1.58 1.415 2.84 3.786 4 6 1.468 2.801 2 5 2 8 0 2-.5 4-2 6s-3.106 3.836-5.5 5.5c-2.629 1.828-5.07 3.38-8.5 5.5-3.067 1.896-6.095 3.211-8 4-2.694 1.116-4 2-5 2h-1.5l-1-1c-.5-.5-.5-1-1.5-1-.5 0-1 0-1-.5s-.5-.5-1-.5h-1c-.5 0-1.146.354-1.5 0-.354-.354-.5-.5-1-.5l-1-.5h-.5M400.75 50.125v5.5c0 1.5.249 3.463.5 6 .246 2.488.535 4.494 1 7.5.54 3.494 1 7.5 1 11.5 0 4.5.525 9.997 1 14.5.527 4.997.36 9.552 1 13.5.507 3.121 1.486 5.324 2 7.5.345 1.46.669 3.155 1.5 4.5.372.602.146 2.146.5 2.5.354.354.73.847 1 1.5.191.462 0 1 0 1.5v-6.5c0-2.5.114-5.139 1-7 1.074-2.257 2.761-3.69 4-5 1.718-1.816 3.195-2.885 5-4 1.345-.831 2.954-1.748 5-2 1.985-.244 3.54-.345 5 0 1.088.257 3.106 1.357 4.5 2.5 1.094.897 3.056 2.96 4.5 5 1.041 1.472 2.455 3.154 3.5 5 1.016 1.794 1.756 3.797 2.5 5 .831 1.345.5 2.5 1 3h.5v.5M70.75 217.125v1c0 .5.117 1.076.5 2 .541 1.307 1.456 2.515 2 4 .926 2.528 2.173 4.904 3.5 7.5 1.734 3.39 3.247 6.87 5 10.5 2.342 4.85 3.882 8.546 5.5 12.5 1.865 4.557 3.45 7.146 4.5 10 1.007 2.736 1.346 3.593 2 4.5.827 1.147 1.5 1 1.5 1 .5-.5 1.5-1 2.5-2s2.095-2.44 3-4c1.122-1.934 2.045-5.096 3-8.5 1.028-3.666 2.79-7.578 4-10.5 1.284-3.099 2.36-6.283 3.5-8 1.383-2.083 2.673-1.853 3.5-3 .654-.907 1.572-1.967 2-3 .605-1.46 1.594-2.972 2-4.5.654-2.464 1.924-4.52 2.5-6.5.442-1.518 1.346-3.093 2-4 .827-1.147 1.71-1.71 2.5-2.5s1.355-2.021 1.5-2.5c.522-1.725 1.747-2.94 2-4.5.16-.987 0-2 0-2.5v-.5h.5M173.25 237.125c0-1.5-.154-2.093.5-3 .827-1.147 1.286-1.34 3.5-2.5 1.4-.734 3.5-.5 6-.5h8c2 0 4.373.686 6.5 2 1.902 1.176 4.111 2.362 6 4 1.603 1.39 2.756 2.797 3.5 4 .831 1.345.5 2.5.5 4 0 1 .435 2.064 0 3.5-.522 1.725-2.5 3-5.5 5.5s-7.192 4.755-13 9.5c-4.662 3.81-10.287 7.697-14 11.5-2.728 2.794-4.693 5.686-6 7.5-.827 1.147-1.5 2-1.5 2.5s.193.959 1.5 1.5c.924.383 2.416.69 4.5 1.5 3.392 1.32 7.432 1.827 11.5 2.5 5.94.983 11 1 18 1 5.5 0 9.977-.25 14-.5 3.992-.249 6 0 8 0h2.5M242.75 294.125c0-.5.5-1 .5-1 .5-.5 1.23-.847 1.5-1.5.191-.462.5-.5.5-.5v1c0 .5.354.354 0 0s-.5-1-1-1c0 0 .5 0 .5-.5s-1 .5-1 .5c-.5.5-1 .5-1.5.5s-.5.5 0 1 .076 1.617 1 2c.653.27.5-1 1-1.5v-.5l.5-.5M259.75 249.625c0-.5.146-.854.5-.5s.23 1.347.5 2c.765 1.848 0 3 0 5.5s.5 5 .5 8.5v12c0 4-.25 7.973-.5 11.5-.177 2.494-.248 4.954-.5 7-.183 1.489 0 3 0 3.5s.73 1.347 1 2c.191.462 0 1 1 2 0 0 .73.347 1 1 .191.462.347.73 1 1 .924.383 1.038.309 1.5.5.653.27 1 1 1.5 1 1.5 0 2.434-.144 4.5-1 1.46-.605 3.46-2.056 5.5-3.5 1.472-1.041 3.346-2.705 5-5 1.307-1.814 1.44-4.513 2-7 .452-2.011 1-4 1-5.5v-5.5c0-2 .5-4 .5-6 0-2.5.867-5.022.5-8-.252-2.046-1.248-3.954-1.5-6-.244-1.985-1.243-2.912-1.5-4-.23-.973-.395-2.04-1-3.5a25.244 25.244 0 0 0-1.5-3c-.905-1.56-1.5-1.5-2-2.5s-1.5-1.5-2.5-2.5-2.5-1.5-3.5-2-2-.5-3-.5h-2c-.5 0-1.106.357-2.5 1.5-.547.448-2.26 1.78-3.5 3.5-1.307 1.814-2.5 3.5-4.5 5.5s-3.486 3.324-4 5.5c-.115.487-.5 2-.5 2.5v.5M386.25 266.625c-.5 0-1 0-1-.5s0-.5-.5-1c0 0-.354-.646 0-1s.646-.354 1 0 .646.146 1 .5.5.5.5 1v1.5c-.5 0-.743-.412-1-1.5-.115-.487.23-.347.5-1 .191-.462.854-.354.5 0s-.847.23-1.5.5c-.462.191-.5 0-.5 0h-1.5c-.5 0 .146-.354.5 0s0 1 0 1.5-.5.5-1 .5M415.75 242.125c-.5-.5-1-1-1.5-1h-5.5c-1 0-1.21.71-2 1.5s-1.353 1.173-2.5 2c-.907.654-1.26 1.28-2.5 3-.654.907-.743 1.912-1 3-.23.973-.73 2.347-1 3-.383.924 0 1.5 0 2.5 0 .5.191 1.038 0 1.5-.27.653-.5 1-.5 1.5s-.191 1.038 0 1.5c.27.653 1.23.347 1.5 1 .191.462.146 1.146.5 1.5.354.354 1.23-.153 1.5.5.191.462.5.5.5 1s.793-.207 1.5.5c.354.354.049.912 1 1.5.425.263 1 .5 1.5.5 0 0 .538-.191 1 0 .653.27.646.646 1 1s1 0 1.5 0h1c.5 0 .5-.5 1-.5s.5 0 .5-.5c0 0 .309-.538.5-1 .27-.653.5-1 .5-1v-2.5c0-.5 0-1-.5-1s-.146-.146-.5-.5-.5 0-1 0h-3.5M432.75 247.125v7.5c0 1 .23 2.527 0 3.5-.257 1.088-.5 2-.5 3v10s0 .5 0 0v-1c0-.5-.243-.912-.5-2-.23-.973 0-2 0-3.5v-11.5c0-.5 0-1.5.5-2s1-1.5 1-2 .23-.847.5-1.5c.191-.462 0-.5 0-.5.5 0 .5.5 1 1s.5 1 .5 1c.5 1 .347 1.73 1 2 .462.191 1 .5 1 1s.5 1 1 2 .617 1.576 1 2.5c.27.653 1.412.549 2 1.5.263.425 0 1 0 1 .5 0 .587.426 1 1 .654.907 1 1 1.5 1.5 1 1 1 1.5 1.5 1.5v-1.5c0-.5.115-1.013 0-1.5-.257-1.088-.846-1.093-1.5-2-.413-.574-.5-1-.5-1.5s-.73-.347-1-1c-.191-.462-.5-.5-1-1 0 0-.5 0-.5-.5s-.646-.146-1-.5l-.5-.5c-.5 0-.646-.146-1-.5-.707-.707-.646-1.146-1-1.5-.707-.707-1.038.191-1.5 0-.653-.27-.5-.5-1-.5s-.347-.73-1-1c-.462-.191-.5 0-1 0s-1.146-.354-1.5 0c-.354.354-.73.347-1 1-.191.462-.73.347-1 1-.383.924-.146 1.146-.5 1.5-.707.707-.5 1-.5 1.5v.5M384.25 1.625c0-.5.5-.5.5-.5.5 0 .538.191 1 0 .653-.27 1-.5 1.5-.5s1.293-.707 2 0c.354.354.646.146 1 .5s.075.737.5 1c.951.588.5 1.5.5 2 0 1-.191 1.538 0 2 .27.653.5 1 .5 1-.5.5-.5 1-.5 1-.5.5-1.5 1-2 1 0 0-.347.73-1 1-.924.383-1.23-.153-1.5.5-.191.462-.5.5-1 .5l.5.5c.354.354.5.5 1 .5 0 0 .73-.153 1 .5.191.462 1 .5 1 .5 1 .5 2 1 2.5 1.5s1.117.576 1.5 1.5c.541 1.307 1.474 1.65 2 2.5.588.951.793 1.793 1.5 2.5.354.354.854.646.5 1s-.847.73-1.5 1c-.462.191-.5 0-.5 0-.5.5-1.347.73-2 1-.462.191-1.5 0-2 0-1 0-2 .5-2.5.5h-3v-.5M411.25 5.625h-1c-1 0-.912.243-2 .5-.487.115-.847.73-1.5 1-.462.191-1.087.426-1.5 1-.654.907-.169 1.155-1 2.5-.372.601-1.247 1.44-1.5 3-.24 1.48-.748 1.954-1 4-.183 1.489 0 3 0 5 0 1 .5 2 .5 3 0 .5.5 1 1 1.5h4.5c.5 0 1.038.191 1.5 0 .653-.27 1.5-1.5 2-2 1-1 1.617-2.076 2-3 .27-.653 1.459-.693 2-2 .383-.924.743-1.912 1-3 .23-.973.27-2.027.5-3 .257-1.088.5-2 .5-3s.354-1.646 0-2c-.354-.354-1 0-2 0h-4s-.309.038-.5.5c-.27.653-.5 1-1 1.5h-.5M431.25 6.125v17c0 2 .5 4 .5 6 0 1-.074 2.114.5 3.5.27.653.5 1.5.5 2.5v2"/><path fill="none" stroke="#000" stroke-opacity="null" stroke-width="1.5" d="M429.75 9.125h11.5c.5 0 .646.146 1 .5s1 0 1 .5.538.309 1 .5c.653.27.646.146 1 .5s.23.847.5 1.5c.191.462.146.146.5.5s.5 1 .5 2v10c0 1-.5 2-.5 2.5s-.5 1.5-.5 2-.5.5-.5 1 .29 1.21-.5 2-1.309 2.038-1.5 2.5c-.812 1.96-1.617 2.576-2 3.5-.27.653-1.146.646-1.5 1l-.5.5c-.5 0-.5.5-1 .5h-1c-1-.5-.847-1.23-1.5-1.5-.462-.191-.5-.5-.5-.5 0-.5.354-1.146 0-1.5-.354-.354-1 0-1.5 0h-.5M454.75 25.125h.5c.5-.5.846-.593 1.5-1.5.413-.574.5-1.5 1.5-2.5.5-.5 1.173-1.353 2-2.5.654-.907.846-2.093 1.5-3 .413-.574.5-1 .5-1.5v-1c0-.5.153-1.23-.5-1.5-.462-.191-.646-.354-1 0s-.426.587-1 1c-.907.654-1.926 1.587-2.5 2-.907.654-2.673 1.353-3.5 2.5-.654.907-1.5 2-2 3.5s-1.248 2.454-1.5 4.5c-.183 1.489-.5 3-.5 5 0 1.5-.765 3.152 0 5 .27.653 1.23 1.347 1.5 2 .191.462.549 1.412 1.5 2 .425.263.347.23 1 .5.462.191 1 0 1.5 0 0 0 .347-.23 1-.5.462-.191 1-.5 2-1s1.5-1 3-1v-.5h1l.5-.5M491.75 14.125h-2.5s-1.076-.383-2 0c-1.307.541-2.033.939-3 1.5-1.56.905-2.648 1.807-4 3-1.676 1.48-3 2.5-4 3.5s-2.267 2.155-3 3c-1.036 1.194-.743 1.912-1 3-.345 1.46-.243 2.912-.5 4-.23.973-.5 2-.5 2.5v2.5c0 .5 0 1 1 2 .5.5.847 1.73 1.5 2 .462.191 1 0 1.5 0h2c1 0 1.847-.23 2.5-.5.924-.383 1.5-.5 1.5-.5l.5-.5M488.25 33.125c.5-.5 1.21-.21 2-1s1.527-.77 2.5-1c1.088-.257 1.967-1.072 3-1.5 1.46-.605 3-.5 3.5-1 1-1 2-1.5 2-1.5.5-.5.793-1.293 1.5-2l.5-.5c.354-.354.347-.73 1-1 .462-.191.5-.5.5-1s.5-1 .5-1.5v-1.5c0-.5.354-1.146 0-1.5-.354-.354-.5-.5-1.5-.5-.5 0-.538.309-1 .5-1.307.541-1.346 1.593-2 2.5-.413.574-1 1.5-1.5 2.5s-1.478 1.775-2 3.5c-.29.957-.285 2.566-1 4.5-.388 1.049-1 2.5-1 4v4.5c.5.5.5 1 1 1s1 .5 1 .5h6c1.5 0 2.093-.346 3-1 .574-.413 1-1 1-1 0-.5.5-.5.5-1v-.5M519.25 20.625c.5 0 .5.5.5 1.5 0 .5.5 2 .5 3 0 1.5.32 3.026 0 5-.253 1.56-.817 3.511-1 5-.252 2.046-.256 4.015-.5 6-.252 2.046-.73 3.847-1 4.5-.191.462 0 1 0 .5 0-1-.105-2.04.5-3.5.856-2.066 1.166-4.115 2-6 .73-1.649 2.144-3.434 3-5.5.605-1.46 1.478-2.275 2-4 .145-.479.809-1.038 1-1.5.27-.653 1-.5 1-.5 0 .5 0 1 .5 1.5s.5 1.5.5 2.5v4c0 1.5-.247 2.94-.5 4.5-.24 1.48-1 2-.5 2s0-1.5.5-2.5.711-2.724 1.5-4c.588-.951 1.5-2 2-2.5s1.038-1.309 1.5-1.5c.653-.27.5 0 .5 1v9h-.5v1M543.75 15.125h-.5v16c0 1.5.5 2.5.5 4 0 .5-.08 2.006 0 2.5.253 1.56.5 2 .5 3 0 .5.5 1.5.5 2.5 0 .5.5 1 .5 2 0 .5.593 1.346 1.5 2 .574.413.347 1.73 1 2 .924.383 1.5 0 1.5 0 1 0 1.146-.146 1.5-.5.354-.354-.207-.793.5-1.5 1.06-1.06 1.587-1.426 2-2 .654-.907.809-2.038 1-2.5.27-.653.5-1.5.5-1.5 0-.5 0-1-.5-1.5s-1-.5-1.5-.5h-5.5v.5"/><path fill="none" stroke="#000" stroke-opacity="null" stroke-width="1.5" d="M554.75 43.125h.5c0-.5.146-.646.5-1l1-1c0-.5.5-1.5.5-2s.73-1.847 1-2.5c.383-.924.5-1.5.5-2.5s.5-1 .5-1.5-.038-1.191-.5-1c-.653.27-.646 1.146-1 1.5-.354.354-.309 1.038-.5 1.5-.27.653-1.117.576-1.5 1.5-.27.653-.5 1-.5 1 0 1-.5 1-.5 2v7c0 1-.115 1.513 0 2 .257 1.088.5 1 1 1.5s1 1.5 1.5 1.5h2c.5 0 1.038.191 1.5 0 .653-.27.5-1 1-1v-1h.5M568.25 38.125v2c0 1.5.248 2.954.5 5 .183 1.489 0 3.5 0 5v5s.146.854.5.5 0-.5 0-2v-10.5c0-1.5.5-2.5 1-4s-.06-2.94 1-4c.354-.354.549-1.412 1.5-2 .425-.263.5-.5.5-.5.5 0 .809.038 1 .5.541 1.307 1 2 2 3s.846 1.593 1.5 2.5c.413.574.73.347 1 1 .191.462.5 1 .5 1.5M435.25 49.125v14c0 .5-.5 2-1 3s-1 2-1 3v1c0 .5-.5.5-.5 0v-8c0-1 .5-2.5.5-3.5s.117-2.076.5-3c.27-.653.617-1.076 1-2 .27-.653.646-.646 1-1s0-1 .5-1h1.5c.5 0 .885.013 1 .5.257 1.088.617 2.076 1 3 .541 1.307 1.243 1.912 1.5 3 .23.973 0 2 0 3v4c0 1 0 1.5-1 2 0 0-.5.5-1 .5l-.5.5c-.354.354-.5.5-.5 1 0 0 .575.237 1 .5.951.588 1.513 1.385 2 1.5 1.088.257 1.926 1.087 2.5 1.5.907.654 2 .5 3 .5h1M457.25 66.125h1c.5 0 .5-.5 1-1s1.439-1.533 2-2.5c.905-1.56 2.208-2.38 3-4 .695-1.42.426-2.114 1-3.5.27-.653.5-1 .5-2 0-.5-.426-1.087-1-1.5-.907-.654-1.5-.5-2.5-.5h-2.5c-.5 0-.807.648-2 2-.74.838-.906 1.567-2 3-.96 1.257-.724 2.903-1.5 5-.715 1.933-.5 4.5-.5 6.5 0 1.5.144 3.434 1 5.5.605 1.46 1.549 2.412 2.5 3 1.276.789 2 0 2.5 0s1.538.191 2 0c.653-.27 1.5-1 2.5-1h2l1-.5h.5M481.25 45.625v3c0 .5.24 2.02 0 3.5-.253 1.56-.748 2.954-1 5-.244 1.985.048 5.008-.5 8-.46 2.508-.5 5.5-.5 8s0 5-.5 6v2M486.75 71.125c0-.5.5-.5.5-.5 0-.5.347-1.73 1-2 .462-.191.5-1 1-1.5s.846-1.593 1.5-2.5c.413-.574.71-1.21 1.5-2s.73-1.347 1-2c.191-.462.354-1.146 0-1.5-.354-.354-1 0-1.5 0s-.538-.191-1 0c-.653.27-1.538.809-2 1-1.307.541-1.5 1-2.5 2-.5.5-1 1-1 2v2c0 1-.5 2-.5 3s.248 1.954.5 4c.122.993.576 1.617 1.5 2 .653.27 1 1 2 1h2.5c.5 0 1.075.263 1.5 0 .951-.588 1.898-1.128 2.5-1.5 1.345-.831 3-1.5 4-1.5h1M525.25 64.625c0-.5-.847-1.23-1.5-1.5-.462-.191-1-.5-1.5-.5h-1c-.5 0-.5.5-1.5.5-.5 0-1.093.346-2 1-1.147.827-1.857 1.606-3 3-.897 1.094-1.169 2.155-2 3.5-.743 1.203-1.27 2.527-1.5 3.5-.257 1.088-.885 2.513-1 3-.257 1.088-.5 2-.5 2.5s.809.538 1 1c.27.653 1 .5 1.5.5h1c.5-.5.853-1.173 2-2 .907-.654 2.093-1.846 3-2.5 1.147-.827 2.111-1.862 4-3.5 1.068-.927 2.606-1.857 4-3 1.094-.897 2-1.5 3-2.5 0 0 .243.412.5 1.5.345 1.46 0 3 0 4v5c0 .5-.5 1-.5 1.5v.5M547.25 68.625s-.513-.115-1 0c-1.088.257-2.013.34-3 .5-1.56.253-3 1-4 1.5s-1.898.628-2.5 1c-1.345.831-2.173 1.353-3 2.5-.654.907-.846 1.593-1.5 2.5-.413.574-1.354 1.146-1 1.5.354.354.912.743 2 1 .973.23 2 0 3 .5s1.593.346 2.5 1c.574.413.73.347 1 1 .191.462 0 1.5 0 1.5v4c0 1.5-.117 3.076-.5 4-.27.653-.847 1.73-1.5 2-.462.191-.5 0-1 0h-2M552.75 84.625c.5 0 .646-.146 1-.5s.847-.73 1.5-1c.462-.191 1.593-.346 2.5-1 1.147-.827 2-1 3-2s1.885-1.013 2-1.5c.257-1.088.5-1.5.5-2s.5-1 .5-1.5c0 0-.23-.347-.5-1-.191-.462-1-1-1.5-1h-2.5c-.5 0-1.347.23-2 .5-.924.383-1.5.5-2 .5s-.847.73-1.5 1c-.462.191-.572.967-1 2-.605 1.46-.76 3.02-1 4.5-.253 1.56-.5 3-.5 4v3.5c0 .5.44 1.595 2 2.5.967.561 2.027 1.27 3 1.5 1.088.257 1 .5 1.5.5s1.075-.237 1.5-.5c.951-.588 1.593-1.346 2.5-2 1.147-.827 1.5-1 2.5-1.5l.5-.5M517.25 302.625v-11.5c0-3 .595-5.977 1.5-10 .56-2.487 1.99-5.856 2.5-8.5.378-1.964.565-3.564 1-5 .522-1.725 1-2.5 1-3s0-1 .5-1 .572.467 1 1.5c.605 1.46 1.724 2.903 2.5 5 .715 1.934 1.244 5.065 2 7.5 1.13 3.637 2 5.5 3 9s2.397 6.544 3.5 9c.916 2.04.44 5.253 2 5 .494-.08-.309-.538-.5-1-.27-.653-.857-1.106-2-2.5-1.345-1.64-3-3-5-5.5s-4.325-4.84-7-6c-3.34-1.449-5.44-2.247-7-2.5-1.48-.24-3.482-1.058-5-1.5-1.98-.576-2.5-1.5-3-1.5s-.487-.385 0-.5c1.088-.257 1.96-.584 4-1.5 2.456-1.103 4.907-1.274 7.5-2 2.929-.82 5.5-1 8-1 3 0 5.454-.248 7.5-.5 3.474-.428 5.5 0 7.5 0s2.646-.354 3 0c.354.354.08.506 0 1-.253 1.56-1.067 1.783-2.5 3.5-1.602 1.92-3.08 2.398-5 4-1.717 1.433-2.885 2.667-5 4-2.157 1.36-4.315.812-6 2-1.474 1.038-2.28 2.26-4 3.5-.907.654-2 2-3 2.5l-3 1.5c-1 .5-2 .5-3 .5s-2.293.293-3 1c-.354.354-.5 1-1 1l-.5.5-.5.5"/><path fill="none" stroke="#000" stroke-opacity="null" stroke-width="1.5" d="M430.25 63.625v1.5s-.191.538 0 1c.27.653.646.646 1 1 .707.707 0 1.5 0 2 0 0-.354.646 0 1l1 1c0 1 0 1.5.5 2v1c0 .5.5 1 .5 1v1.5-9.5c0-2 .072-3.467.5-4.5.605-1.46.5-2 .5-3 0-.5.146-.646.5-1s.854-.646.5-1-.5 1-1 1.5c0 0-.5 1-.5 1.5v1.5"/><path fill="none" stroke="#000" stroke-linecap="round" stroke-opacity="null" stroke-width="1.5" d="M671.25 138.625v.5h29" transform="matrix(2 0 0 1 -671.25 0)"/></svg>